<svg width="735" height="302" viewBox="0 0 735 302" fill="none" xmlns="http://www.w3.org/2000/svg">
<path d="M5.4656 1.42197e-05H56.3335V136.477H5.4656V1.42197e-05Z" fill="url(#paint0_linear_746_224)"/>
<path d="M155.782 51.1926L206.65 37.5557V150.439L155.782 136.477V51.1926Z" fill="url(#paint1_linear_746_224)"/>
<path d="M56.3335 50.8679V1.42197e-05L161.966 0L155.782 51.1926L56.3335 50.8679Z" fill="url(#paint2_linear_746_224)"/>
<path d="M66.02 187.345L114.493 136.477H155.782L161.965 187.345H66.02Z" fill="url(#paint3_linear_746_224)"/>
<path d="M24.1217 187.32L79.9031 136.438H105.241L55.0276 187.32H24.1217Z" fill="url(#paint4_linear_746_224)"/>
<path d="M0 187.345L58.444 136.477H70.2139L14.2863 187.345H0Z" fill="url(#paint5_linear_746_224)"/>
<path d="M161.966 0L206.65 37.5557L155.782 51.1926L161.966 0Z" fill="url(#paint6_linear_746_224)"/>
<path d="M161.976 187.362L206.65 150.439L155.782 136.477L161.976 187.362Z" fill="url(#paint7_linear_746_224)"/>
<path fill-rule="evenodd" clip-rule="evenodd" d="M225.773 187.776V119.87H272.067L253.567 138.37H244.317V144.551H290.474L272.257 163.051L272.301 163.095H244.317V169.233H299.861V187.776H225.773ZM299.861 144.821L281.866 163.095H287.501L299.861 149.909V144.821ZM256.636 138.37L275.179 119.87H287.542L268.998 138.37H256.636ZM278.248 138.37L296.792 119.87H299.861L281.36 138.37H278.248ZM349.255 193.957L309.099 153.801V119.87H327.643V144.551L349.255 166.164L370.868 144.551V141.482L389.368 122.939V135.301L370.868 153.801V156.914L389.368 138.37V153.801L349.255 193.957ZM370.868 132.189V129.12L389.368 110.577V113.689L370.868 132.189ZM398.588 187.776V119.87H444.882L426.382 138.37H417.132V144.551H463.107L444.847 163.095H417.132V169.233H472.675V187.776H398.588ZM454.5 163.095H460.071L472.675 150.295V144.637L454.5 163.095ZM429.451 138.37L447.994 119.87H460.356L441.813 138.37H429.451ZM451.063 138.37L469.606 119.87H472.675L454.175 138.37H451.063ZM481.914 187.776V156.914L500.457 138.37V169.233H556.001V187.776H481.914ZM481.914 153.801V141.482L500.457 122.939V135.301L481.914 153.801ZM481.914 132.189V129.12L500.457 110.577V113.689L481.914 132.189ZM627.008 150.732L645.508 132.189V144.551L627.008 163.095V150.732ZM627.008 141.482V138.37L639.327 126.008L640.883 127.564L627.008 141.482ZM577.602 187.776L565.24 175.414V132.189L577.602 119.87H627.008V138.37H583.783V169.233H627.008V166.164L645.508 147.62V175.414L633.146 187.776H577.602ZM654.729 197.026V193.957L673.272 175.414V178.526L654.729 197.026ZM716.497 147.62V138.37H673.272V147.62H716.497ZM654.729 184.707V172.345L673.272 153.801V150.732L654.729 169.233V119.87H722.635L734.997 132.189V153.801L722.635 166.164H673.272L654.729 184.707Z" fill="#1C82DF"/>
<path fill-rule="evenodd" clip-rule="evenodd" d="M225.805 298.534V301.603L244.348 283.102V279.99L225.805 298.534ZM287.573 242.946V252.197H244.348V242.946H287.573ZM225.805 276.921V289.283L244.348 270.74H293.711L306.073 258.378V236.765L293.711 224.446H225.805V273.809L244.348 255.309V258.378L225.805 276.921ZM315.293 298.534V301.603L333.837 283.102V279.99L315.293 298.534ZM377.062 242.946V252.197H333.837V242.946H377.062ZM349.268 270.74L370.881 292.352H395.562L373.949 270.74H383.2L395.562 258.378V236.765L383.2 224.446H315.293V273.809L333.837 255.309V258.378L315.293 276.921V289.283L333.837 270.74H349.268ZM466.55 255.309V267.671L485.051 249.128V236.765L466.55 255.309ZM466.55 242.946V246.059L480.426 232.14L478.87 230.584L466.55 242.946ZM404.782 279.99L417.145 292.352H472.688L485.051 279.99V252.197L466.55 270.74V273.809H423.326V242.946H466.55V224.446H417.145L404.782 236.765V279.99ZM494.271 224.446V292.352H512.814V273.809H542.275L542.187 273.722L560.319 255.309H512.814V242.946H522.065L540.565 224.446H494.271ZM568.358 256.947L551.754 273.809H556.958L568.358 262.232V256.947ZM543.677 224.446L525.134 242.946H537.496L556.039 224.446H543.677ZM565.289 224.446L546.746 242.946H549.858L568.358 224.446H565.289ZM577.597 298.534V301.603L596.14 283.102V279.99L577.597 298.534ZM596.14 258.378L577.597 276.921V289.283L596.14 270.74V258.378ZM577.597 224.446V273.809L596.14 255.309V224.446H577.597Z" fill="#1C82DF"/>
<defs>
<linearGradient id="paint0_linear_746_224" x1="176.39" y1="16.9606" x2="-15.0761" y2="191.089" gradientUnits="userSpaceOnUse">
<stop offset="0.00222773" stop-color="#00FEEE"/>
<stop offset="0.102101" stop-color="#07E7EA" stop-opacity="0.971047"/>
<stop offset="0.158612" stop-color="#0ADDE8" stop-opacity="0.957227"/>
<stop offset="0.217458" stop-color="#0CD3E6" stop-opacity="0.945192"/>
<stop offset="0.271629" stop-color="#10C7E3" stop-opacity="0.928508"/>
<stop offset="0.309959" stop-color="#14B8E0" stop-opacity="0.91"/>
<stop offset="0.39472" stop-color="#1D9BDA" stop-opacity="0.91"/>
<stop offset="0.466832" stop-color="#218DD7" stop-opacity="0.91"/>
<stop offset="0.538944" stop-color="#2580D4" stop-opacity="0.91"/>
<stop offset="0.616678" stop-color="#206CCD" stop-opacity="0.895665"/>
<stop offset="0.711852" stop-color="#1A53C5" stop-opacity="0.876894"/>
<stop offset="1" stop-color="#0C12AF" stop-opacity="0.83"/>
</linearGradient>
<linearGradient id="paint1_linear_746_224" x1="176.39" y1="16.9606" x2="-15.0761" y2="191.089" gradientUnits="userSpaceOnUse">
<stop offset="0.00222773" stop-color="#00FEEE"/>
<stop offset="0.102101" stop-color="#07E7EA" stop-opacity="0.971047"/>
<stop offset="0.158612" stop-color="#0ADDE8" stop-opacity="0.957227"/>
<stop offset="0.217458" stop-color="#0CD3E6" stop-opacity="0.945192"/>
<stop offset="0.271629" stop-color="#10C7E3" stop-opacity="0.928508"/>
<stop offset="0.309959" stop-color="#14B8E0" stop-opacity="0.91"/>
<stop offset="0.39472" stop-color="#1D9BDA" stop-opacity="0.91"/>
<stop offset="0.466832" stop-color="#218DD7" stop-opacity="0.91"/>
<stop offset="0.538944" stop-color="#2580D4" stop-opacity="0.91"/>
<stop offset="0.616678" stop-color="#206CCD" stop-opacity="0.895665"/>
<stop offset="0.711852" stop-color="#1A53C5" stop-opacity="0.876894"/>
<stop offset="1" stop-color="#0C12AF" stop-opacity="0.83"/>
</linearGradient>
<linearGradient id="paint2_linear_746_224" x1="176.39" y1="16.9606" x2="-15.0761" y2="191.089" gradientUnits="userSpaceOnUse">
<stop offset="0.00222773" stop-color="#00FEEE"/>
<stop offset="0.102101" stop-color="#07E7EA" stop-opacity="0.971047"/>
<stop offset="0.158612" stop-color="#0ADDE8" stop-opacity="0.957227"/>
<stop offset="0.217458" stop-color="#0CD3E6" stop-opacity="0.945192"/>
<stop offset="0.271629" stop-color="#10C7E3" stop-opacity="0.928508"/>
<stop offset="0.309959" stop-color="#14B8E0" stop-opacity="0.91"/>
<stop offset="0.39472" stop-color="#1D9BDA" stop-opacity="0.91"/>
<stop offset="0.466832" stop-color="#218DD7" stop-opacity="0.91"/>
<stop offset="0.538944" stop-color="#2580D4" stop-opacity="0.91"/>
<stop offset="0.616678" stop-color="#206CCD" stop-opacity="0.895665"/>
<stop offset="0.711852" stop-color="#1A53C5" stop-opacity="0.876894"/>
<stop offset="1" stop-color="#0C12AF" stop-opacity="0.83"/>
</linearGradient>
<linearGradient id="paint3_linear_746_224" x1="176.39" y1="16.9606" x2="-15.0761" y2="191.089" gradientUnits="userSpaceOnUse">
<stop offset="0.00222773" stop-color="#00FEEE"/>
<stop offset="0.102101" stop-color="#07E7EA" stop-opacity="0.971047"/>
<stop offset="0.158612" stop-color="#0ADDE8" stop-opacity="0.957227"/>
<stop offset="0.217458" stop-color="#0CD3E6" stop-opacity="0.945192"/>
<stop offset="0.271629" stop-color="#10C7E3" stop-opacity="0.928508"/>
<stop offset="0.309959" stop-color="#14B8E0" stop-opacity="0.91"/>
<stop offset="0.39472" stop-color="#1D9BDA" stop-opacity="0.91"/>
<stop offset="0.466832" stop-color="#218DD7" stop-opacity="0.91"/>
<stop offset="0.538944" stop-color="#2580D4" stop-opacity="0.91"/>
<stop offset="0.616678" stop-color="#206CCD" stop-opacity="0.895665"/>
<stop offset="0.711852" stop-color="#1A53C5" stop-opacity="0.876894"/>
<stop offset="1" stop-color="#0C12AF" stop-opacity="0.83"/>
</linearGradient>
<linearGradient id="paint4_linear_746_224" x1="176.39" y1="16.9606" x2="-15.0761" y2="191.089" gradientUnits="userSpaceOnUse">
<stop offset="0.00222773" stop-color="#00FEEE"/>
<stop offset="0.102101" stop-color="#07E7EA" stop-opacity="0.971047"/>
<stop offset="0.158612" stop-color="#0ADDE8" stop-opacity="0.957227"/>
<stop offset="0.217458" stop-color="#0CD3E6" stop-opacity="0.945192"/>
<stop offset="0.271629" stop-color="#10C7E3" stop-opacity="0.928508"/>
<stop offset="0.309959" stop-color="#14B8E0" stop-opacity="0.91"/>
<stop offset="0.39472" stop-color="#1D9BDA" stop-opacity="0.91"/>
<stop offset="0.466832" stop-color="#218DD7" stop-opacity="0.91"/>
<stop offset="0.538944" stop-color="#2580D4" stop-opacity="0.91"/>
<stop offset="0.616678" stop-color="#206CCD" stop-opacity="0.895665"/>
<stop offset="0.711852" stop-color="#1A53C5" stop-opacity="0.876894"/>
<stop offset="1" stop-color="#0C12AF" stop-opacity="0.83"/>
</linearGradient>
<linearGradient id="paint5_linear_746_224" x1="176.39" y1="16.9606" x2="-15.0761" y2="191.089" gradientUnits="userSpaceOnUse">
<stop offset="0.00222773" stop-color="#00FEEE"/>
<stop offset="0.102101" stop-color="#07E7EA" stop-opacity="0.971047"/>
<stop offset="0.158612" stop-color="#0ADDE8" stop-opacity="0.957227"/>
<stop offset="0.217458" stop-color="#0CD3E6" stop-opacity="0.945192"/>
<stop offset="0.271629" stop-color="#10C7E3" stop-opacity="0.928508"/>
<stop offset="0.309959" stop-color="#14B8E0" stop-opacity="0.91"/>
<stop offset="0.39472" stop-color="#1D9BDA" stop-opacity="0.91"/>
<stop offset="0.466832" stop-color="#218DD7" stop-opacity="0.91"/>
<stop offset="0.538944" stop-color="#2580D4" stop-opacity="0.91"/>
<stop offset="0.616678" stop-color="#206CCD" stop-opacity="0.895665"/>
<stop offset="0.711852" stop-color="#1A53C5" stop-opacity="0.876894"/>
<stop offset="1" stop-color="#0C12AF" stop-opacity="0.83"/>
</linearGradient>
<linearGradient id="paint6_linear_746_224" x1="176.39" y1="16.9606" x2="-15.0761" y2="191.089" gradientUnits="userSpaceOnUse">
<stop offset="0.00222773" stop-color="#00FEEE"/>
<stop offset="0.102101" stop-color="#07E7EA" stop-opacity="0.971047"/>
<stop offset="0.158612" stop-color="#0ADDE8" stop-opacity="0.957227"/>
<stop offset="0.217458" stop-color="#0CD3E6" stop-opacity="0.945192"/>
<stop offset="0.271629" stop-color="#10C7E3" stop-opacity="0.928508"/>
<stop offset="0.309959" stop-color="#14B8E0" stop-opacity="0.91"/>
<stop offset="0.39472" stop-color="#1D9BDA" stop-opacity="0.91"/>
<stop offset="0.466832" stop-color="#218DD7" stop-opacity="0.91"/>
<stop offset="0.538944" stop-color="#2580D4" stop-opacity="0.91"/>
<stop offset="0.616678" stop-color="#206CCD" stop-opacity="0.895665"/>
<stop offset="0.711852" stop-color="#1A53C5" stop-opacity="0.876894"/>
<stop offset="1" stop-color="#0C12AF" stop-opacity="0.83"/>
</linearGradient>
<linearGradient id="paint7_linear_746_224" x1="176.39" y1="16.9606" x2="-15.0761" y2="191.089" gradientUnits="userSpaceOnUse">
<stop offset="0.00222773" stop-color="#00FEEE"/>
<stop offset="0.102101" stop-color="#07E7EA" stop-opacity="0.971047"/>
<stop offset="0.158612" stop-color="#0ADDE8" stop-opacity="0.957227"/>
<stop offset="0.217458" stop-color="#0CD3E6" stop-opacity="0.945192"/>
<stop offset="0.271629" stop-color="#10C7E3" stop-opacity="0.928508"/>
<stop offset="0.309959" stop-color="#14B8E0" stop-opacity="0.91"/>
<stop offset="0.39472" stop-color="#1D9BDA" stop-opacity="0.91"/>
<stop offset="0.466832" stop-color="#218DD7" stop-opacity="0.91"/>
<stop offset="0.538944" stop-color="#2580D4" stop-opacity="0.91"/>
<stop offset="0.616678" stop-color="#206CCD" stop-opacity="0.895665"/>
<stop offset="0.711852" stop-color="#1A53C5" stop-opacity="0.876894"/>
<stop offset="1" stop-color="#0C12AF" stop-opacity="0.83"/>
</linearGradient>
</defs>
</svg>
